<svg width="44" height="42" viewBox="0 0 44 42" fill="none" xmlns="http://www.w3.org/2000/svg">
<path d="M21.4802 2.66007L2.40016 19.8601C2.09016 20.1401 1.91016 20.5401 1.91016 20.9601L1.91016 38.6101C1.91016 39.4301 2.57016 40.0901 3.39016 40.0901H17.6302C17.6602 40.0901 17.6802 40.0701 17.6802 40.0401V32.5101C17.6802 29.9701 19.5302 27.6901 22.0602 27.4701C24.9102 27.2201 27.3002 29.4601 27.3002 32.2601L27.3002 40.0401C27.3002 40.0701 27.3202 40.0901 27.3502 40.0901H40.8002C41.6202 40.0901 42.2802 39.4301 42.2802 38.6101L42.2802 20.9401C42.2802 20.5301 42.1102 20.1401 41.8102 19.8601L23.4802 2.68007C22.9202 2.15007 22.0502 2.15007 21.4802 2.66007Z" stroke="#262626" stroke-width="3" stroke-miterlimit="10"/>
</svg>
